<svg xmlns="http://www.w3.org/2000/svg" version="1.1" xmlns:xlink="http://www.w3.org/1999/xlink"
    xmlns:svgjs="http://svgjs.dev/svgjs" width="1500" height="1789" viewBox="0 0 1500 1789">
    <g transform="matrix(1,0,0,1,0.6649818182214631,0.7242914979756279)">
        <svg viewBox="0 0 207 247" data-background-color="#c8c8c8"
            preserveAspectRatio="xMidYMid meet" height="1789" width="1500"
            xmlns="http://www.w3.org/2000/svg" xmlns:xlink="http://www.w3.org/1999/xlink">
            <g id="tight-bounds"
                transform="matrix(1,0,0,1,-0.09144051524123142,-0.09999999999999432)">
                <svg viewBox="0 0 207.18309466877588 247.2" height="247.2"
                    width="207.18309466877588">
                    <g>
                        <svg></svg>
                    </g>
                    <g>
                        <svg viewBox="0 0 207.18309466877588 247.2" height="247.2"
                            width="207.18309466877588">
                            <g transform="matrix(1,0,0,1,0,47.21520000000001)">
                                <svg viewBox="0 0 207.18309466877588 152.76959999999997"
                                    height="152.76959999999997" width="207.18309466877588">
                                    <g>
                                        <svg viewBox="0 0 207.18309466877588 152.76959999999997"
                                            height="152.76959999999997" width="207.18309466877588">
                                            <g>
                                                <svg
                                                    viewBox="0 0 207.18309466877588 152.76959999999997"
                                                    height="152.76959999999997"
                                                    width="207.18309466877588">
                                                    <g id="textblocktransform">
                                                        <svg
                                                            viewBox="0 0 207.18309466877588 152.76959999999997"
                                                            height="152.76959999999997"
                                                            width="207.18309466877588"
                                                            id="textblock">
                                                            <g>
                                                                <svg
                                                                    viewBox="0 0 207.18309466877588 152.76959999999997"
                                                                    height="152.76959999999997"
                                                                    width="207.18309466877588">
                                                                    <path
                                                                        d="M206.698 32.766C205.724 16.909 202.948 12.5 202.948 12.5 194.425-3.833 183.789-0.312 174.234 2.034 157.364 2.13 140.563 5.618 123.732 7.489 88.404 7.775 52.775 3.081 17.623 14.657 14.321 18.209-3.426 15.355 0.587 34.796 1.639 42.883 5.477 51.859 5.36 59.28 5.886 60.58 6.616 57.599 6.928 59.47 8.019 64.513 9.801 62.134 11.262 65.115 9.227 73.076 10.688 79.704 12.081 86.65 9.626 88.457 6.48 87.601 5.068 93.595 4.922 97.94 4.133 97.116 3.266 96.925 2.633 96.798 1.357 97.274 1.571 98.638 2.302 103.3-0.835 105.996 1.133 110.563-0.221 115.51 2.068 119.792 1.756 125.152 1.717 126.23 1.931 127.15 2.272 127.403 3.782 128.767 1.581 131.431 1.815 134.317 17.301 154.044 34.103 140.406 49.97 149.477 54.09 143.134 50.992 151.729 52.639 150.397 53.924 148.843 54.859 155.281 56.311 151.633 56.535 150.587 56.194 148.113 56.992 148.589 57.411 148.843 57.781 148.779 57.84 147.32 57.927 145.132 57.158 146.496 56.953 145.354 59.164 139.582 58.619 153.314 60.694 152.743 60.596 151.063 59.992 148.652 61.229 148.969 62.457 146.559 62.496 144.561 63.586 149.984 63.625 151.158 63.82 151.982 64.132 152.553 67.541 146.654 70.93 154.646 74.505 151.982 76.697 149.065 78.8 153.568 81.021 152.458 81.8 151.57 82.589 149.984 83.339 152.648 92.524 153.219 102.313 150.841 111.021 152.743 134.29 149.191 159.157 154.202 183.692 149.509 189.478 147.701 195.487 145.132 201.127 143.07 201.127 143.07 205.695 137.425 205.695 112.053S206.669 89.853 206.815 69.651C206.961 49.448 207.643 48.624 206.669 32.766Z"
                                                                        opacity="1" fill="#474c55"
                                                                        data-fill-palette-color="tertiary"></path>
                                                                    <g
                                                                        transform="matrix(1,0,0,1,34.464821759999985,16.210552)">
                                                                        <svg
                                                                            width="138.2534511487759"
                                                                            viewBox="-0.34 -25.93 29.78 25.93"
                                                                            height="120.34849599999998"
                                                                            data-palette-color="#c8c8c8">
                                                                            <path
                                                                                d="M9.35 0L-0.34-25.93 10.38-25.93 19.6 0 9.35 0ZM29.44-25.93L20.7-1.44 15.87-15.16 19.36-25.93 29.44-25.93Z"
                                                                                opacity="1"
                                                                                transform="matrix(1,0,0,1,0,0)"
                                                                                fill="#c8c8c8"
                                                                                class="wordmark-text-0"
                                                                                data-fill-palette-color="quaternary"
                                                                                id="text-0"></path>
                                                                        </svg>
                                                                    </g>
                                                                </svg>
                                                            </g>
                                                        </svg>
                                                    </g>
                                                </svg>
                                            </g>
                                            <g></g>
                                        </svg>
                                    </g>
                                </svg>
                            </g>
                            <path
                                d="M0 41.215L0 1 207.183 1 207.183 41.215 196.33 41.215 196.33 11.853 10.853 11.853 10.853 41.215 0 41.215M0 205.985L0 246.2 207.183 246.2 207.183 205.985 196.33 205.985 196.33 235.347 10.853 235.347 10.853 205.985 0 205.985"
                                fill="#474c55" stroke="transparent"
                                data-fill-palette-color="tertiary"></path>
                        </svg>
                    </g>
                    <defs></defs>
                </svg>
                <rect width="207.18309466877588" height="247.2" fill="none" stroke="none"
                    visibility="hidden"></rect>
            </g>
        </svg>
    </g>
</svg>